<svg width="74" height="74" viewBox="0 0 74 74" fill="none" xmlns="http://www.w3.org/2000/svg">
<path d="M55.9102 58.4099C56.8991 58.4099 57.8657 58.7032 58.688 59.2526C59.5102 59.802 60.1511 60.583 60.5295 61.4966C60.908 62.4102 61.007 63.4155 60.8141 64.3854C60.6212 65.3553 60.1449 66.2462 59.4457 66.9454C58.7464 67.6447 57.8555 68.1209 56.8856 68.3138C55.9157 68.5068 54.9103 68.4077 53.9967 68.0293C53.0831 67.6509 52.3022 67.01 51.7528 66.1877C51.2034 65.3655 50.9102 64.3988 50.9102 63.4099C50.9102 62.0838 51.437 60.8121 52.3746 59.8744C53.3123 58.9367 54.5841 58.4099 55.9102 58.4099Z" fill="black"/>
<path d="M30.96 58.4099C31.9489 58.4099 32.9155 58.7032 33.7378 59.2526C34.56 59.802 35.2009 60.583 35.5793 61.4966C35.9578 62.4102 36.0568 63.4155 35.8639 64.3854C35.671 65.3553 35.1947 66.2462 34.4955 66.9454C33.7962 67.6447 32.9052 68.1209 31.9353 68.3138C30.9654 68.5068 29.9601 68.4077 29.0465 68.0293C28.1329 67.6509 27.352 67.01 26.8026 66.1877C26.2532 65.3655 25.96 64.3988 25.96 63.4099C25.96 62.0838 26.4866 60.8121 27.4243 59.8744C28.362 58.9367 29.6339 58.4099 30.96 58.4099Z" fill="black"/>
<path d="M6 8.5H10.6901C11.4997 8.50216 12.287 8.76626 12.9341 9.25293C13.5812 9.7396 14.0533 10.4227 14.28 11.2L24.91 47.36C25.2161 48.3932 25.8477 49.2998 26.7108 49.9449C27.574 50.5901 28.6225 50.9391 29.7001 50.9399H57.0901C58.1857 50.9394 59.2507 50.5789 60.1216 49.9141C60.9924 49.2492 61.6208 48.3168 61.91 47.26L68.39 23.48H55.91" stroke="black" stroke-width="2" stroke-linecap="round" stroke-linejoin="round"/>
<path d="M45.9301 23.47V37.4099L51.65 31.6899C52.1263 31.2642 52.7475 31.0369 53.3861 31.0548C54.0247 31.0727 54.6323 31.3343 55.084 31.786C55.5357 32.2377 55.7973 32.8453 55.8152 33.4839C55.8331 34.1225 55.6058 34.7437 55.1801 35.22L45.1801 45.22C44.7114 45.6871 44.0767 45.9495 43.415 45.9495C42.7534 45.9495 42.1186 45.6871 41.65 45.22L31.65 35.22C31.2243 34.7437 30.997 34.1225 31.0149 33.4839C31.0328 32.8453 31.2944 32.2377 31.7461 31.786C32.1978 31.3343 32.8054 31.0727 33.444 31.0548C34.0826 31.0369 34.7038 31.2642 35.1801 31.6899L40.9 37.4099V23.47H18.48L26.2101 50.9299H60.9L68.39 23.47H45.9301Z" fill="black"/>
<path d="M45.9302 8.5C45.9302 7.83696 45.6667 7.20102 45.1979 6.73218C44.729 6.26334 44.0932 6 43.4302 6C42.7671 6 42.1312 6.26334 41.6624 6.73218C41.1935 7.20102 40.9302 7.83696 40.9302 8.5V20.98H45.9302V8.5Z" fill="black"/>
<path d="M45.9302 26.6699H58.4102" stroke="black" stroke-width="2" stroke-linejoin="round"/>
<path d="M18.48 26.6699H40.9401" stroke="black" stroke-width="2" stroke-linejoin="round"/>
</svg>
