<svg width="18" height="17" viewBox="0 0 18 17" fill="none" xmlns="http://www.w3.org/2000/svg">
<path d="M16.25 12.29C15.57 11.59 13.65 10.29 12.38 10.29C12.1124 10.2798 11.8478 10.3494 11.6199 10.49C11.2189 10.8019 10.7651 11.039 10.28 11.1899C10.15 11.1899 10.0099 11.07 9.69991 10.81V10.7599C9.22398 10.3615 8.76999 9.93753 8.33992 9.48995L8.24995 9.39995L8.08992 9.22995C7.79992 8.92995 7.58993 8.71995 6.84993 7.87995C6.49993 7.47995 6.26995 7.21995 6.24995 7.02995C6.22995 6.83995 6.40001 6.53995 6.81001 5.96995C7.05955 5.60697 7.19804 5.17923 7.20869 4.73887C7.21935 4.29852 7.10164 3.86458 6.86995 3.48995C6.46057 2.71657 5.96037 1.9948 5.37996 1.33995V1.28995C5.20092 1.03819 4.96595 0.831332 4.69356 0.685593C4.42116 0.539854 4.1188 0.459199 3.81001 0.449951C3.27124 0.480417 2.7531 0.66816 2.3199 0.989952H2.24995C1.65398 1.34229 1.19818 1.88991 0.959915 2.53995C0.689915 3.39995 0.519984 4.53995 1.77998 6.82995C2.74961 8.67133 3.99003 10.3568 5.45992 11.83C6.55172 12.9874 7.76543 14.0234 9.07991 14.9199C10.3165 15.9416 11.8184 16.5902 13.41 16.79C13.9896 16.8579 14.5767 16.764 15.1063 16.5186C15.6358 16.2733 16.0871 15.8861 16.41 15.4C17.62 13.94 17.12 13.0499 16.41 12.2999" fill="white"/>
</svg>
