<svg width="19" height="18" viewBox="0 0 19 18" fill="none" xmlns="http://www.w3.org/2000/svg">
<path d="M4.62 7.79004C6.06687 10.6266 8.37346 12.933 11.21 14.3799L13.41 12.1699C13.5393 12.0431 13.7006 11.9539 13.8768 11.9116C14.0529 11.8694 14.2372 11.8756 14.41 11.9299C15.5619 12.3093 16.7672 12.5018 17.98 12.5C18.2452 12.5 18.4996 12.6054 18.6871 12.793C18.8747 12.9805 18.98 13.2348 18.98 13.5V17C18.98 17.2652 18.8747 17.5195 18.6871 17.707C18.4996 17.8946 18.2452 18 17.98 18C13.4713 18 9.14729 16.2089 5.95917 13.0208C2.77105 9.83263 0.97998 5.50868 0.97998 1C0.97998 0.734784 1.08535 0.480505 1.27289 0.292969C1.46042 0.105432 1.71476 0 1.97998 0H5.47998C5.7452 0 5.9996 0.105432 6.18713 0.292969C6.37467 0.480505 6.47998 0.734784 6.47998 1C6.47905 2.21273 6.67147 3.41792 7.04999 4.57007C7.10304 4.74374 7.10783 4.92856 7.06378 5.10474C7.01974 5.28091 6.92853 5.44179 6.79999 5.57007L4.62 7.79004Z" fill="white"/>
</svg>
