<svg width="74" height="74" viewBox="0 0 74 74" fill="none" xmlns="http://www.w3.org/2000/svg">
<path fill-rule="evenodd" clip-rule="evenodd" d="M10 71.8464V30.7565C10 29.9572 10.1576 29.1657 10.4638 28.4274C10.7699 27.6891 11.2187 27.0184 11.7843 26.4537C12.35 25.889 13.0214 25.4413 13.7602 25.1364C14.499 24.8314 15.2907 24.6751 16.09 24.6764V18.5864C16.09 17.7908 16.4061 17.0277 16.9687 16.4651C17.5313 15.9025 18.2943 15.5864 19.09 15.5864H22.09V3.40649C22.121 3.02336 22.2952 2.66587 22.5777 2.40527C22.8603 2.14468 23.2306 2 23.615 2C23.9994 2 24.3697 2.14468 24.6523 2.40527C24.9348 2.66587 25.109 3.02336 25.14 3.40649V15.5864H28.14C28.9357 15.5864 29.6987 15.9025 30.2613 16.4651C30.8239 17.0277 31.14 17.7908 31.14 18.5864V24.6764C31.9393 24.6751 32.731 24.8314 33.4698 25.1364C34.2086 25.4413 34.88 25.889 35.4457 26.4537C36.0113 27.0184 36.4601 27.6891 36.7662 28.4274C37.0724 29.1657 37.23 29.9572 37.23 30.7565V42.9364H48V33.8464H54.09V29.2765H63.22V33.8464H64.74V71.8464H10ZM28.26 20.1064C28.26 19.7033 28.0998 19.3167 27.8148 19.0316C27.5297 18.7466 27.1431 18.5864 26.74 18.5864H20.6C20.1969 18.5864 19.8103 18.7466 19.5252 19.0316C19.2402 19.3167 19.08 19.7033 19.08 20.1064V24.6764H28.21L28.26 20.1064ZM34.35 30.7565C34.3501 30.3583 34.2708 29.964 34.1169 29.5967C33.9631 29.2294 33.7376 28.8964 33.4537 28.6172C33.1698 28.3379 32.8332 28.1181 32.4634 27.9703C32.0936 27.8225 31.6981 27.7498 31.3 27.7565H16C15.6018 27.7498 15.2063 27.8225 14.8366 27.9703C14.4668 28.1181 14.1302 28.3379 13.8463 28.6172C13.5624 28.8964 13.3369 29.2294 13.183 29.5967C13.0292 29.964 12.95 30.3583 12.95 30.7565V68.7565H34.3L34.35 30.7565ZM48 45.9764H37.34V68.8464H48V45.9764ZM61.7 36.8464H51V68.8464H61.65L61.7 36.8464ZM55.61 41.4164H57.13C57.5331 41.4164 57.9197 41.5765 58.2048 41.8616C58.4899 42.1466 58.65 42.5333 58.65 42.9364V44.4564C58.65 44.8595 58.4899 45.2462 58.2048 45.5312C57.9197 45.8163 57.5331 45.9764 57.13 45.9764H55.6C55.1969 45.9764 54.8103 45.8163 54.5252 45.5312C54.2402 45.2462 54.08 44.8595 54.08 44.4564V42.9364C54.08 42.5333 54.2402 42.1466 54.5252 41.8616C54.8103 41.5765 55.1969 41.4164 55.6 41.4164H55.61ZM55.6 50.5464H57.12C57.5231 50.5464 57.9097 50.7065 58.1948 50.9916C58.4798 51.2766 58.64 51.6633 58.64 52.0664V53.5864C58.64 53.9896 58.4798 54.3762 58.1948 54.6613C57.9097 54.9463 57.5231 55.1064 57.12 55.1064H55.6C55.1969 55.1064 54.8103 54.9463 54.5252 54.6613C54.2402 54.3762 54.08 53.9896 54.08 53.5864V52.0664C54.08 51.6633 54.2402 51.2766 54.5252 50.9916C54.8103 50.7065 55.1969 50.5464 55.6 50.5464ZM55.6 59.6764H57.12C57.5231 59.6764 57.9097 59.8365 58.1948 60.1216C58.4798 60.4066 58.64 60.7933 58.64 61.1964V62.7164C58.64 63.1196 58.4798 63.5062 58.1948 63.7913C57.9097 64.0763 57.5231 64.2365 57.12 64.2365H55.6C55.1969 64.2365 54.8103 64.0763 54.5252 63.7913C54.2402 63.5062 54.08 63.1196 54.08 62.7164V61.1964C54.08 60.7933 54.2402 60.4066 54.5252 60.1216C54.8103 59.8365 55.1969 59.6764 55.6 59.6764ZM41.91 50.5464H43.43C43.8331 50.5464 44.2197 50.7065 44.5048 50.9916C44.7898 51.2766 44.95 51.6633 44.95 52.0664V53.5864C44.95 53.9896 44.7898 54.3762 44.5048 54.6613C44.2197 54.9463 43.8331 55.1064 43.43 55.1064H41.91C41.7096 55.1078 41.5108 55.0694 41.3253 54.9937C41.1397 54.9179 40.9709 54.8061 40.8287 54.6648C40.6865 54.5235 40.5737 54.3555 40.4966 54.1704C40.4196 53.9853 40.38 53.7869 40.38 53.5864V52.0664C40.38 51.866 40.4196 51.6675 40.4966 51.4824C40.5737 51.2974 40.6865 51.1293 40.8287 50.988C40.9709 50.8468 41.1397 50.7351 41.3253 50.6593C41.5108 50.5835 41.7096 50.5451 41.91 50.5464V50.5464ZM41.91 59.6764H43.43C43.8331 59.6764 44.2197 59.8365 44.5048 60.1216C44.7898 60.4066 44.95 60.7933 44.95 61.1964V62.7164C44.95 63.1196 44.7898 63.5062 44.5048 63.7913C44.2197 64.0763 43.8331 64.2365 43.43 64.2365H41.91C41.7096 64.2378 41.5108 64.1995 41.3253 64.1237C41.1397 64.0479 40.9709 63.9361 40.8287 63.7948C40.6865 63.6535 40.5737 63.4855 40.4966 63.3004C40.4196 63.1153 40.38 62.9169 40.38 62.7164V61.1964C40.38 60.996 40.4196 60.7975 40.4966 60.6124C40.5737 60.4274 40.6865 60.2593 40.8287 60.118C40.9709 59.9768 41.1397 59.8651 41.3253 59.7893C41.5108 59.7135 41.7096 59.6751 41.91 59.6764V59.6764ZM28.21 64.2365H26.69C26.2869 64.2365 25.9003 64.0763 25.6152 63.7913C25.3301 63.5062 25.17 63.1196 25.17 62.7164V61.1964C25.17 60.7933 25.3301 60.4066 25.6152 60.1216C25.9003 59.8365 26.2869 59.6764 26.69 59.6764H28.21C28.6131 59.6764 28.9997 59.8365 29.2848 60.1216C29.5698 60.4066 29.73 60.7933 29.73 61.1964V62.7164C29.73 63.1196 29.5698 63.5062 29.2848 63.7913C28.9997 64.0763 28.6131 64.2365 28.21 64.2365V64.2365ZM28.21 55.1064H26.69C26.2869 55.1064 25.9003 54.9463 25.6152 54.6613C25.3301 54.3762 25.17 53.9896 25.17 53.5864V52.0664C25.17 51.6633 25.3301 51.2766 25.6152 50.9916C25.9003 50.7065 26.2869 50.5464 26.69 50.5464H28.21C28.6131 50.5464 28.9997 50.7065 29.2848 50.9916C29.5698 51.2766 29.73 51.6633 29.73 52.0664V53.5864C29.73 53.9896 29.5698 54.3762 29.2848 54.6613C28.9997 54.9463 28.6131 55.1064 28.21 55.1064ZM28.21 45.9764H26.69C26.2869 45.9764 25.9003 45.8163 25.6152 45.5312C25.3301 45.2462 25.17 44.8595 25.17 44.4564V42.9364C25.17 42.5333 25.3301 42.1466 25.6152 41.8616C25.9003 41.5765 26.2869 41.4164 26.69 41.4164H28.21C28.6131 41.4164 28.9997 41.5765 29.2848 41.8616C29.5698 42.1466 29.73 42.5333 29.73 42.9364V44.4564C29.73 44.8595 29.5698 45.2462 29.2848 45.5312C28.9997 45.8163 28.6131 45.9764 28.21 45.9764ZM28.21 36.8464H26.69C26.2869 36.8464 25.9003 36.6863 25.6152 36.4012C25.3301 36.1162 25.17 35.7295 25.17 35.3264V33.8464C25.17 33.4433 25.3301 33.0567 25.6152 32.7716C25.9003 32.4866 26.2869 32.3264 26.69 32.3264H28.21C28.6131 32.3264 28.9997 32.4866 29.2848 32.7716C29.5698 33.0567 29.73 33.4433 29.73 33.8464V35.3665C29.73 35.7696 29.5698 36.1562 29.2848 36.4413C28.9997 36.7263 28.6131 36.8865 28.21 36.8865V36.8464ZM20.6 64.2765H19.08C18.6769 64.2765 18.2902 64.1164 18.0052 63.8313C17.7201 63.5462 17.56 63.1596 17.56 62.7565V61.2365C17.56 60.8333 17.7201 60.4467 18.0052 60.1616C18.2902 59.8766 18.6769 59.7164 19.08 59.7164H20.6C21.0031 59.7164 21.3897 59.8766 21.6748 60.1616C21.9599 60.4467 22.12 60.8333 22.12 61.2365V62.7565C22.12 63.1596 21.9599 63.5462 21.6748 63.8313C21.3897 64.1164 21.0031 64.2765 20.6 64.2765V64.2765ZM20.6 55.1465H19.08C18.6769 55.1465 18.2902 54.9863 18.0052 54.7013C17.7201 54.4162 17.56 54.0296 17.56 53.6265V52.1064C17.56 51.7033 17.7201 51.3167 18.0052 51.0316C18.2902 50.7466 18.6769 50.5864 19.08 50.5864H20.6C21.0031 50.5864 21.3897 50.7466 21.6748 51.0316C21.9599 51.3167 22.12 51.7033 22.12 52.1064V53.6265C22.12 54.0296 21.9599 54.4162 21.6748 54.7013C21.3897 54.9863 21.0031 55.1465 20.6 55.1465V55.1465ZM20.6 46.0165H19.08C18.6769 46.0165 18.2902 45.8563 18.0052 45.5713C17.7201 45.2862 17.56 44.8996 17.56 44.4965V42.9764C17.56 42.5733 17.7201 42.1867 18.0052 41.9016C18.2902 41.6166 18.6769 41.4564 19.08 41.4564H20.6C21.0031 41.4564 21.3897 41.6166 21.6748 41.9016C21.9599 42.1867 22.12 42.5733 22.12 42.9764V44.4965C22.12 44.8996 21.9599 45.2862 21.6748 45.5713C21.3897 45.8563 21.0031 46.0165 20.6 46.0165ZM20.6 36.8865H19.08C18.6769 36.8865 18.2902 36.7263 18.0052 36.4413C17.7201 36.1562 17.56 35.7696 17.56 35.3665V33.8464C17.56 33.4433 17.7201 33.0567 18.0052 32.7716C18.2902 32.4866 18.6769 32.3264 19.08 32.3264H20.6C21.0031 32.3264 21.3897 32.4866 21.6748 32.7716C21.9599 33.0567 22.12 33.4433 22.12 33.8464V35.3665C22.12 35.7696 21.9599 36.1562 21.6748 36.4413C21.3897 36.7263 21.0031 36.8865 20.6 36.8865Z" fill="#1C2530"/>
</svg>
