<svg width="516" height="45" viewBox="0 0 516 45" fill="none" xmlns="http://www.w3.org/2000/svg">
<path d="M33.1487 22.0014H40.7069V39.1456C38.4948 40.9071 35.9139 42.259 32.9644 43.2012C30.0149 44.1434 26.9834 44.6145 23.87 44.6145C19.4867 44.6145 15.5335 43.6723 12.0104 41.7878C8.48735 39.8625 5.72216 37.2202 3.71484 33.861C1.70752 30.5018 0.703857 26.7124 0.703857 22.493C0.703857 18.2735 1.70752 14.4842 3.71484 11.125C5.72216 7.76578 8.48735 5.14397 12.0104 3.25955C15.5744 1.33416 19.5686 0.37146 23.9929 0.37146C27.5979 0.37146 30.8751 0.965464 33.8247 2.15347C36.7742 3.34148 39.2526 5.08253 41.26 7.37661L36.2212 12.2925C32.9439 9.01524 28.9907 7.37661 24.3616 7.37661C21.3301 7.37661 18.6264 8.01158 16.2504 9.28152C13.9153 10.5515 12.0719 12.3335 10.72 14.6275C9.40908 16.9216 8.75363 19.5434 8.75363 22.493C8.75363 25.3606 9.40908 27.9414 10.72 30.2355C12.0719 32.5296 13.9153 34.3321 16.2504 35.643C18.6264 36.9539 21.3096 37.6093 24.3001 37.6093C27.6593 37.6093 30.6089 36.872 33.1487 35.3972V22.0014Z" fill="white"/>
<path d="M69.739 44.6145C63.799 44.6145 59.1698 42.9554 55.8516 39.6371C52.5334 36.278 50.8743 31.485 50.8743 25.2582V0.985947H58.8626V24.9509C58.8626 33.3899 62.5086 37.6093 69.8005 37.6093C77.0514 37.6093 80.6769 33.3899 80.6769 24.9509V0.985947H88.5423V25.2582C88.5423 31.485 86.8832 36.278 83.565 39.6371C80.2877 42.9554 75.679 44.6145 69.739 44.6145Z" fill="white"/>
<path d="M131.99 37.3021V44H99.7298V0.985947H131.13V7.68385H107.718V18.8675H128.488V25.4425H107.718V37.3021H131.99Z" fill="white"/>
<path d="M149.621 7.7453H135.365V0.985947H171.866V7.7453H157.61V44H149.621V7.7453Z" fill="white"/>
<path d="M187.187 7.7453H172.93V0.985947H209.431V7.7453H195.175V44H187.187V7.7453Z" fill="white"/>
<path d="M241.163 34.0453H219.656L215.416 44H207.182L226.539 0.985947H234.404L253.822 44H245.465L241.163 34.0453ZM238.521 27.7776L230.41 8.97427L222.36 27.7776H238.521Z" fill="white"/>
<path d="M279.25 44.3686C274.99 44.3686 271.139 43.4264 267.698 41.542C264.297 39.6576 261.614 37.0562 259.648 33.738C257.722 30.3788 256.76 26.6304 256.76 22.4929C256.76 18.3554 257.722 14.6275 259.648 11.3093C261.614 7.95006 264.318 5.32825 267.759 3.44382C271.2 1.5594 275.051 0.617188 279.311 0.617188C282.507 0.617188 285.456 1.14974 288.16 2.21485C290.864 3.27996 293.158 4.83666 295.042 6.88495L292.154 9.77304C288.795 6.37288 284.555 4.6728 279.434 4.6728C276.034 4.6728 272.941 5.45115 270.156 7.00784C267.37 8.56455 265.178 10.6948 263.581 13.3985C262.024 16.1022 261.246 19.1337 261.246 22.4929C261.246 25.8521 262.024 28.8836 263.581 31.5873C265.178 34.291 267.37 36.4213 270.156 37.978C272.941 39.5347 276.034 40.313 279.434 40.313C284.596 40.313 288.836 38.5925 292.154 35.1513L295.042 38.0394C293.158 40.0877 290.843 41.6649 288.099 42.771C285.395 43.8361 282.445 44.3686 279.25 44.3686Z" fill="white"/>
<path d="M330.632 32.509H306.667L301.505 43.9999H296.773L316.437 0.985878H320.923L340.586 43.9999H335.793L330.632 32.509ZM328.972 28.8221L318.649 5.71742L308.326 28.8221H328.972Z" fill="white"/>
<path d="M363.801 0.985878C369.291 0.985878 373.592 2.29678 376.706 4.91859C379.819 7.5404 381.376 11.1454 381.376 15.7336C381.376 20.3217 379.819 23.9267 376.706 26.5485C373.592 29.1294 369.291 30.4198 363.801 30.4198H352.249V43.9999H347.702V0.985878H363.801ZM363.678 26.4256C367.939 26.4256 371.196 25.5039 373.449 23.6604C375.702 21.776 376.829 19.1337 376.829 15.7336C376.829 12.2515 375.702 9.58869 373.449 7.74523C371.196 5.8608 367.939 4.91859 363.678 4.91859H352.249V26.4256H363.678Z" fill="white"/>
<path d="M391.208 0.985878H395.755V43.9999H391.208V0.985878Z" fill="white"/>
<path d="M418.108 4.91859H402.991V0.985878H437.771V4.91859H422.655V43.9999H418.108V4.91859Z" fill="white"/>
<path d="M469.851 32.509H445.886L440.725 43.9999H435.993L455.657 0.985878H460.142L479.806 43.9999H475.013L469.851 32.509ZM468.192 28.8221L457.869 5.71742L447.545 28.8221H468.192Z" fill="white"/>
<path d="M486.921 0.985878H491.469V40.0672H515.556V43.9999H486.921V0.985878Z" fill="white"/>
</svg>
