<svg width="14" height="17" viewBox="0 0 14 17" fill="none" xmlns="http://www.w3.org/2000/svg">
<path d="M11.77 12L7.00001 16.8L2.23002 12.02C1.28518 11.0763 0.64145 9.87357 0.380319 8.56396C0.119188 7.25436 0.252365 5.89673 0.763009 4.66284C1.27365 3.42895 2.13882 2.3744 3.24903 1.63232C4.35925 0.890253 5.66463 0.494141 7.00001 0.494141C8.33539 0.494141 9.64077 0.890253 10.751 1.63232C11.8612 2.3744 12.7264 3.42895 13.237 4.66284C13.7477 5.89673 13.8808 7.25436 13.6197 8.56396C13.3586 9.87357 12.7148 11.0763 11.77 12.02V12ZM7.00001 10.25C7.59335 10.25 8.17338 10.074 8.66673 9.74438C9.16007 9.41474 9.54458 8.94613 9.77165 8.39795C9.99871 7.84977 10.0581 7.24674 9.94236 6.66479C9.82661 6.08285 9.54087 5.54822 9.12132 5.12866C8.70176 4.7091 8.16722 4.42337 7.58527 4.30762C7.00333 4.19186 6.40015 4.25121 5.85197 4.47827C5.30379 4.70533 4.83524 5.0899 4.50559 5.58325C4.17595 6.0766 4.00001 6.65666 4.00001 7.25C4.00001 8.04565 4.31609 8.80873 4.8787 9.37134C5.44131 9.93395 6.20436 10.25 7.00001 10.25V10.25ZM7.00001 8.75C6.70334 8.75 6.41334 8.66214 6.16667 8.49731C5.91999 8.33249 5.72771 8.09806 5.61417 7.82397C5.50064 7.54989 5.47094 7.24825 5.52882 6.95728C5.5867 6.6663 5.72956 6.39923 5.93934 6.18945C6.14912 5.97967 6.4164 5.83669 6.70738 5.77881C6.99835 5.72093 7.29996 5.75073 7.57404 5.86426C7.84813 5.97779 8.08238 6.17007 8.2472 6.41675C8.41202 6.66342 8.50001 6.95333 8.50001 7.25C8.50001 7.64782 8.34198 8.02924 8.06068 8.31055C7.77937 8.59185 7.39783 8.75 7.00001 8.75" fill="white"/>
</svg>
