<svg width="140" height="50" viewBox="0 0 140 50" fill="none" xmlns="http://www.w3.org/2000/svg">
<path d="M19 34.67H20.89V39C20.3266 39.4463 19.6859 39.7852 19 40C18.2673 40.2401 17.501 40.3617 16.73 40.36C15.6848 40.3815 14.6516 40.1335 13.73 39.64C12.8668 39.1797 12.1498 38.4868 11.66 37.64C11.1682 36.7743 10.9097 35.7957 10.9097 34.8C10.9097 33.8044 11.1682 32.8258 11.66 31.96C12.1567 31.1151 12.8763 30.4232 13.74 29.96C14.665 29.4766 15.6964 29.2325 16.74 29.25C17.5803 29.2409 18.4149 29.3901 19.2 29.69C19.8908 29.9859 20.5061 30.4336 21 31L19.74 32.23C19.3535 31.827 18.8869 31.5093 18.3702 31.2974C17.8535 31.0856 17.2982 30.9843 16.74 31C16.045 30.9916 15.3585 31.1529 14.74 31.47C14.1636 31.7786 13.6854 32.2429 13.36 32.81C13.0317 33.4076 12.8596 34.0783 12.8596 34.76C12.8596 35.4418 13.0317 36.1125 13.36 36.71C13.6877 37.2779 14.165 37.7449 14.74 38.06C15.3543 38.3904 16.0425 38.559 16.74 38.55C17.5291 38.5732 18.3098 38.3832 19 38V34.67Z" fill="white"/>
<path d="M24.66 39.07C24.2239 38.5849 23.8894 38.0173 23.6764 37.4006C23.4634 36.784 23.3763 36.1309 23.42 35.48V29.42H25.42V35.42C25.42 37.52 26.34 38.58 28.16 38.58C29.98 38.58 30.87 37.52 30.87 35.42V29.42H32.87V35.48C32.9115 36.1308 32.8233 36.7832 32.6104 37.3995C32.3975 38.0158 32.0643 38.5837 31.63 39.07C30.6558 39.8774 29.4303 40.3193 28.165 40.3193C26.8997 40.3193 25.6742 39.8774 24.7 39.07H24.66Z" fill="white"/>
<path d="M43.68 38.49V40.16H35.62V29.42H43.46V31.09H37.61V33.89H42.8V35.53H37.61V38.53L43.68 38.49Z" fill="white"/>
<path d="M48.08 31.11H44.52V29.42H53.63V31.11H50.07V40.11H48.07L48.08 31.11Z" fill="white"/>
<path d="M57.46 31.11H53.9V29.42H63V31.11H59.44V40.11H57.44L57.46 31.11Z" fill="white"/>
<path d="M71 37.68H65.63L64.57 40.16H62.51L67.35 29.42H69.35L74.2 40.16H72L71 37.68ZM70.34 36.11L68.34 31.42L66.34 36.11H70.34Z" fill="white"/>
<path d="M77.58 39.55C76.741 39.0813 76.0486 38.3889 75.58 37.55C75.1009 36.6945 74.8493 35.7304 74.8493 34.75C74.8493 33.7695 75.1009 32.8054 75.58 31.95C76.0486 31.111 76.741 30.4186 77.58 29.95C78.3587 29.5428 79.2147 29.3047 80.0919 29.2513C80.969 29.1979 81.8476 29.3303 82.67 29.64C83.3269 29.8903 83.9159 30.291 84.39 30.81L83.67 31.53C83.2564 31.1095 82.7606 30.7788 82.2134 30.5585C81.6663 30.3383 81.0796 30.2333 80.49 30.25C79.6816 30.2411 78.8851 30.4446 78.18 30.84C77.4985 31.2104 76.9313 31.7602 76.54 32.43C76.1529 33.1239 75.9497 33.9054 75.9497 34.7C75.9497 35.4946 76.1529 36.276 76.54 36.97C76.9307 37.6428 77.4978 38.196 78.18 38.57C78.8859 38.9623 79.6825 39.1623 80.49 39.15C81.0723 39.1887 81.6563 39.1065 82.2053 38.9086C82.7543 38.7107 83.2564 38.4013 83.68 38L84.4 38.73C83.9195 39.2461 83.3279 39.6462 82.67 39.9C81.8491 40.2149 80.9704 40.3511 80.0926 40.2994C79.2149 40.2476 78.3582 40.0092 77.58 39.6V39.55Z" fill="white"/>
<path d="M93.3 37.29H87.3L86 40.16H84.82L89.73 29.42H90.85L95.76 40.16H94.56L93.3 37.29ZM92.89 36.37L90.31 30.6L87.73 36.37H92.89Z" fill="white"/>
<path d="M104.81 30.4001C105.179 30.7461 105.474 31.1643 105.675 31.6287C105.876 32.0931 105.98 32.5939 105.98 33.1001C105.98 33.6062 105.876 34.107 105.675 34.5714C105.474 35.0358 105.179 35.454 104.81 35.8001C103.89 36.5062 102.748 36.8608 101.59 36.8001H98.7V40.1901H97.57V29.4201H101.57C102.732 29.3497 103.882 29.6973 104.81 30.4001V30.4001ZM104 35.0801C104.285 34.834 104.509 34.5255 104.654 34.1785C104.8 33.8316 104.864 33.4556 104.84 33.0801C104.861 32.7047 104.797 32.3295 104.651 31.9829C104.506 31.6363 104.283 31.3275 104 31.0801C103.291 30.5732 102.43 30.326 101.56 30.3801H98.7V35.7601H101.56C102.427 35.8199 103.289 35.5798 104 35.0801V35.0801Z" fill="white"/>
<path d="M108.45 29.42H109.58V40.16H108.45V29.42Z" fill="white"/>
<path d="M115.17 30.4H111.39V29.4H120.08V30.4H116.3V40.16H115.17V30.4Z" fill="white"/>
<path d="M128.09 37.29H122.09L120.81 40.16H119.62L124.53 29.42H125.65L130.57 40.16H129.37L128.09 37.29ZM127.67 36.37L125.1 30.6L122.52 36.37H127.67Z" fill="white"/>
<path d="M132.35 29.42H133.49V39.18H139.49V40.18H132.33L132.35 29.42Z" fill="white"/>
<path d="M51 49.9401H0.390015V0.0600586H51V26.5001H48V3.06006H3.39001V46.9401H48V43.5601H51V49.9401Z" fill="white"/>
</svg>
