<svg width="74" height="74" viewBox="0 0 74 74" fill="none" xmlns="http://www.w3.org/2000/svg">
<path d="M63.8307 22.9401C63.8278 22.7875 63.7828 22.6387 63.7007 22.51L56.2908 10.51C56.192 10.3529 56.0547 10.2236 55.892 10.1343C55.7292 10.045 55.5464 9.99881 55.3608 10H18.4507C18.2651 9.99881 18.0823 10.045 17.9196 10.1343C17.7568 10.2236 17.6195 10.3529 17.5208 10.51L10.1307 22.45C10.0491 22.5677 10.0039 22.7068 10.0007 22.85V27.85C9.98762 28.5354 10.1509 29.2127 10.4749 29.8168C10.7988 30.4209 11.2726 30.9317 11.8508 31.3001V62.75C11.8534 63.0347 11.9683 63.3068 12.1706 63.5072C12.3728 63.7076 12.646 63.82 12.9307 63.82H60.9307C61.2154 63.82 61.4887 63.7076 61.6909 63.5072C61.8932 63.3068 62.0081 63.0347 62.0107 62.75V31.4301C62.586 31.0635 63.0579 30.5559 63.3817 29.9556C63.7055 29.3552 63.8704 28.682 63.8608 28V23L63.8307 22.9401ZM19.0507 12.11H54.7607L60.8107 21.8001H13.0007L19.0507 12.11ZM54.2908 23.96V27.88C54.3302 28.3244 54.1943 28.7667 53.9122 29.1123C53.6301 29.458 53.224 29.6796 52.7808 29.73H50.6307C49.7407 29.73 49.4007 29.47 49.2507 29.26C49.1428 28.8084 49.099 28.3439 49.1207 27.88V23.9401L54.2908 23.96ZM46.9008 23.96V27.88C46.9428 28.325 46.8079 28.7685 46.5253 29.1148C46.2427 29.461 45.8351 29.682 45.3907 29.73H43.2407C42.0707 29.73 41.9507 29.2601 41.8207 28.8001V23.9401L46.9008 23.96ZM39.5107 23.96V27.88C39.5528 28.325 39.4179 28.7685 39.1353 29.1148C38.8527 29.461 38.4451 29.682 38.0007 29.73H35.8307C35.3875 29.6796 34.9814 29.458 34.6993 29.1123C34.4172 28.7667 34.2814 28.3244 34.3207 27.88V23.9401L39.5107 23.96ZM32.1508 23.96V27.88C32.185 28.3234 32.0473 28.7628 31.7661 29.1073C31.4849 29.4518 31.082 29.6748 30.6407 29.73H28.4808C28.0382 29.6796 27.6332 29.4576 27.3527 29.1116C27.0722 28.7656 26.9386 28.3234 26.9808 27.88V23.9401L32.1508 23.96ZM24.7607 25.6801V27.88C24.761 28.1714 24.6976 28.4593 24.575 28.7235C24.4523 28.9878 24.2734 29.2221 24.0507 29.4101C23.806 29.5672 23.5351 29.679 23.2507 29.74H21.1008C20.6556 29.6896 20.248 29.4665 19.9656 29.1187C19.6832 28.7708 19.5486 28.3261 19.5908 27.88V24.01H24.8307L24.7607 25.6801ZM13.5107 29.7901C13.0997 29.7083 12.7327 29.4792 12.4786 29.1459C12.2245 28.8126 12.1008 28.398 12.1307 27.98V23.98H17.3707V27.88C17.3768 28.1674 17.3178 28.4524 17.1984 28.7139C17.0789 28.9753 16.9019 29.2065 16.6807 29.39C16.0692 29.6523 15.405 29.7687 14.7407 29.73H13.7407L13.5107 29.7901ZM31.9708 61.65H21.3807V41.9401H32.1508L31.9708 61.65ZM59.8207 61.65H34.1307L34.3007 40.86C34.2861 40.5741 34.1731 40.302 33.9808 40.09C33.7759 39.8952 33.5034 39.7877 33.2208 39.7901H20.3007C20.1594 39.7887 20.0192 39.8154 19.8882 39.8686C19.7572 39.9217 19.6381 40.0004 19.5377 40.0999C19.4372 40.1994 19.3576 40.3178 19.3032 40.4483C19.2488 40.5787 19.2208 40.7186 19.2208 40.86V61.65H13.9907V31.99H15.8307C16.6261 31.9675 17.3891 31.6707 17.9907 31.15C18.0732 31.1095 18.1504 31.0591 18.2208 31C18.5783 31.3486 19.0054 31.6179 19.4741 31.7902C19.9428 31.9625 20.4425 32.034 20.9407 32H23.0908C23.8823 31.9917 24.6447 31.701 25.2407 31.1801C25.3496 31.1263 25.4534 31.0626 25.5507 30.99C26.2928 31.6446 27.2512 32.0009 28.2407 31.99H30.3907C30.6824 31.9917 30.9726 31.9479 31.2507 31.86C31.8747 31.7731 32.4683 31.5364 32.9808 31.1701C33.479 31.5418 34.0643 31.7794 34.6807 31.86C34.9656 31.9485 35.2624 31.9924 35.5607 31.99H37.7208C38.0116 31.9818 38.3004 31.9381 38.5807 31.86C39.1634 31.7782 39.713 31.5398 40.1708 31.1701C40.9352 31.7667 41.8936 32.0588 42.8608 31.99H45.0208C45.928 32.0357 46.8238 31.7712 47.5607 31.24C48.0693 31.6203 48.6698 31.8585 49.3007 31.9301C49.597 31.9501 49.8944 31.9501 50.1907 31.9301H53.5208C53.9041 31.5287 54.4217 31.2823 54.975 31.2381C55.5283 31.1938 56.0785 31.3547 56.5208 31.6901C56.9645 31.9008 57.4495 32.0101 57.9407 32.01H59.8307L59.8207 61.65ZM61.6807 27.98C61.7056 28.4 61.5775 28.8147 61.3201 29.1475C61.0627 29.4803 60.6935 29.7086 60.2808 29.7901H59.0007C58.4361 29.7979 57.8724 29.7409 57.3207 29.62C57.0405 29.4409 56.8119 29.1917 56.6575 28.897C56.5032 28.6023 56.4284 28.2725 56.4407 27.9401V23.9401H61.6807V27.98Z" fill="black"/>
<path d="M53.5107 39.79H38.9107C38.6376 39.7893 38.3743 39.892 38.174 40.0775C37.9736 40.2631 37.8509 40.5177 37.8307 40.79L37.6807 50.72C37.6763 50.8634 37.7007 51.0063 37.7522 51.1403C37.8037 51.2742 37.8814 51.3964 37.9807 51.5C38.0796 51.6069 38.2006 51.6909 38.3353 51.7462C38.4701 51.8015 38.6152 51.8266 38.7607 51.82H53.5107C53.7971 51.82 54.0718 51.7062 54.2744 51.5037C54.4769 51.3011 54.5907 51.0264 54.5907 50.74V40.88C54.5907 40.7386 54.5627 40.5987 54.5083 40.4683C54.4539 40.3378 54.3742 40.2194 54.2737 40.1199C54.1733 40.0204 54.0542 39.9417 53.9232 39.8886C53.7922 39.8354 53.652 39.8087 53.5107 39.8101V39.79ZM52.4407 49.8101H39.8307L39.9607 42.04H52.4107L52.4407 49.8101Z" fill="black"/>
</svg>
