<svg width="40" height="40" viewBox="0 0 40 40" fill="none" xmlns="http://www.w3.org/2000/svg">
<path d="M7.20502 29.9665C9.77185 33.4251 13.6054 35.7248 17.8651 36.3615C22.1248 36.9982 26.463 35.9197 29.9289 33.3627C33.3948 30.8058 35.7055 26.979 36.3543 22.7211C37.0031 18.4633 35.9372 14.1218 33.3902 10.6486C30.8432 7.17542 27.0229 4.8538 22.7669 4.1928C18.5109 3.53181 14.1666 4.58542 10.6861 7.12249C7.20564 9.65957 4.87318 13.4731 4.20002 17.7272C3.52686 21.9813 4.56792 26.3286 7.09504 29.8163L7.20502 29.9665ZM27.345 34.3066C25.635 34.3066 25.215 33.9664 24.805 33.6264C24.6584 33.5293 24.5386 33.3969 24.4565 33.2414C24.3744 33.0859 24.3326 32.9123 24.335 32.7365C24.4245 32.4391 24.5742 32.1634 24.775 31.9264L24.955 31.6664C25.7731 30.4523 26.2275 29.0298 26.265 27.5663C26.271 27.3753 26.2188 27.1871 26.1151 27.0265C24.9551 25.1865 22.725 26.0265 20.935 26.7265C20.1221 27.0846 19.2643 27.3302 18.3851 27.4565L18.585 27.2866C18.995 27.0072 19.3353 26.6372 19.5798 26.2055C19.8242 25.7738 19.9664 25.2919 19.9951 24.7966C19.9802 24.1704 19.7441 23.5696 19.3286 23.101C18.913 22.6324 18.3449 22.3261 17.725 22.2365C15.725 22.0965 14.825 21.5066 14.725 21.0466C14.6806 20.9376 14.6806 20.8154 14.725 20.7065C15.855 21.0565 17.925 21.6164 19.145 20.1564C20.075 19.0564 19.945 17.4265 18.795 15.6865L18.715 15.5663C18.175 14.7463 17.605 13.8965 17.805 13.2365C18.004 12.8276 18.312 12.4816 18.695 12.2365C19.6064 11.5464 20.6181 11 21.695 10.6164H21.775C23.135 10.1364 25.185 9.39647 25.335 7.44647C25.321 6.50352 24.9657 5.59756 24.335 4.89642L24.155 4.6264C26.4189 5.00878 28.5683 5.8939 30.445 7.21649L27.055 11.9665C26.205 13.1565 26.155 14.2965 26.925 14.9665C27.2318 15.2377 27.6102 15.4148 28.015 15.4765C28.6731 15.6119 29.343 15.6822 30.015 15.6865H30.1351C30.1413 15.773 30.1413 15.8599 30.1351 15.9465C30.1912 16.7715 30.0893 17.5996 29.835 18.3864C29.7845 18.5434 29.7735 18.7105 29.8032 18.8727C29.8328 19.035 29.9022 19.1874 30.0051 19.3163C30.3224 19.6447 30.7462 19.8493 31.2008 19.8932C31.6553 19.9372 32.1107 19.818 32.4851 19.5566L32.805 19.3564C32.941 19.2582 33.0889 19.1776 33.2451 19.1164C33.4446 19.2191 33.6323 19.3433 33.805 19.4865C34.2839 19.9437 34.9052 20.2226 35.565 20.2765V20.2765C36.1006 20.2653 36.6118 20.0507 36.9951 19.6764C36.9951 19.7564 36.9951 19.8264 36.9951 19.8964C36.9907 22.9911 36.0649 26.0143 34.3355 28.5807C32.6062 31.1472 30.1516 33.1406 27.285 34.3066H27.345ZM36.555 16.3066C36.3907 16.6279 36.2535 16.9624 36.145 17.3066C36.0716 17.5266 36.0017 17.7264 35.935 17.9064C35.8618 18.0919 35.7279 18.247 35.555 18.3464C35.3465 18.2542 35.1541 18.1294 34.9851 17.9765C34.491 17.4892 33.8289 17.21 33.1351 17.1965C32.7262 17.2184 32.33 17.3457 31.9851 17.5663C32.0652 16.9866 32.0853 16.4002 32.045 15.8163C32.0529 15.4491 31.9648 15.0863 31.7894 14.7636C31.614 14.4409 31.3574 14.1696 31.045 13.9765C30.6996 13.8096 30.3183 13.7306 29.935 13.7465C29.3939 13.746 28.8543 13.6889 28.325 13.5763V13.5763C28.3945 13.3974 28.4888 13.2291 28.605 13.0763L31.925 8.40643C34.2407 10.5037 35.8715 13.2496 36.605 16.2866L36.555 16.3066ZM21.4951 4.3764H21.825C22.0265 4.9584 22.3239 5.50269 22.705 5.9865C23.0363 6.34073 23.2524 6.78702 23.325 7.26653C23.325 7.95653 22.045 8.39652 21.055 8.75652H20.975C19.7171 9.20502 18.5364 9.84588 17.475 10.6564C16.7502 11.1393 16.197 11.8395 15.895 12.6564C15.435 14.1864 16.335 15.5464 17.055 16.6564L17.1351 16.7765C17.5951 17.4765 18.0051 18.4564 17.6151 18.9064C17.2251 19.3564 16.115 19.1266 15.095 18.8066C14.7783 18.7121 14.4409 18.7107 14.1235 18.8029C13.806 18.8951 13.5218 19.0768 13.305 19.3263C13.0041 19.6575 12.803 20.0673 12.7252 20.508C12.6473 20.9486 12.6959 21.4021 12.8651 21.8163C13.2451 22.8163 14.365 23.9765 17.565 24.1965C17.6948 24.2582 17.8053 24.354 17.8846 24.4738C17.9639 24.5936 18.0089 24.7328 18.015 24.8764C18.015 25.1264 17.7151 25.4264 17.2451 25.8764C16.637 26.3444 16.1642 26.9657 15.8751 27.6764C15.8233 27.851 15.8201 28.0364 15.8659 28.2126C15.9117 28.3888 16.0048 28.5492 16.1351 28.6764C17.6451 30.0564 19.835 29.2266 21.605 28.5566C22.825 28.0866 23.825 27.7365 24.265 27.9365C24.1586 28.8896 23.8148 29.8006 23.265 30.5864L23.105 30.8163C22.7202 31.2868 22.4528 31.8422 22.325 32.4365C22.2674 32.9548 22.346 33.4792 22.5529 33.9579C22.7599 34.4367 23.088 34.8532 23.5051 35.1664L23.675 35.2966C22.9361 35.4003 22.1911 35.4537 21.445 35.4565C18.9899 35.4569 16.5698 34.8752 14.383 33.7592C12.1962 32.6432 10.3052 31.0248 8.86506 29.0366C8.98978 27.6758 9.51921 26.3834 10.3851 25.3263L10.475 25.1965C10.7634 24.8158 10.9243 24.3538 10.935 23.8764C10.8905 23.3349 10.665 22.8242 10.295 22.4264L10.145 22.2365C9.50497 21.3365 9.945 19.9364 10.685 19.0864L10.7451 19.0065C10.9929 18.7765 11.191 18.498 11.3268 18.1884C11.4627 17.8788 11.5335 17.5446 11.535 17.2065C11.4933 16.8214 11.3407 16.4567 11.0958 16.1567C10.8508 15.8567 10.5239 15.6344 10.155 15.5165C9.63559 15.3643 9.08818 15.3334 8.555 15.4264C7.82826 15.5244 7.11195 15.6884 6.41498 15.9164C7.29664 12.6086 9.24397 9.68338 11.9555 7.59368C14.6671 5.50399 17.9917 4.36622 21.415 4.35638L21.4951 4.3764ZM5.96503 18.1564C6.86336 17.7602 7.81241 17.4909 8.78498 17.3564C9.01947 17.311 9.26057 17.311 9.49506 17.3564V17.3564C9.41103 17.4802 9.31738 17.5973 9.21503 17.7065L9.14497 17.7966C7.89497 19.2466 7.27506 21.6164 8.49506 23.3464C8.56506 23.4364 8.62501 23.5264 8.69501 23.6064L8.91498 23.8964C8.88121 23.9549 8.84451 24.0116 8.805 24.0663L8.72504 24.1865C8.16628 24.9273 7.70579 25.7373 7.35505 26.5964C6.34984 24.5026 5.83023 22.209 5.83503 19.8864C5.83316 19.3016 5.86653 18.7172 5.935 18.1364" fill="white"/>
</svg>
