<svg width="19" height="21" viewBox="0 0 19 21" fill="none" xmlns="http://www.w3.org/2000/svg">
<path d="M18.67 1.4901C18.6888 1.41331 18.6851 1.33285 18.6591 1.25816C18.6332 1.18347 18.5862 1.11781 18.5239 1.0692C18.4615 1.02059 18.3865 0.990918 18.3077 0.983993C18.2289 0.977067 18.1498 0.993152 18.0799 1.03014L1.3199 9.82017C1.18116 9.89285 1.05822 9.99208 0.957963 10.1124C0.857702 10.2327 0.782125 10.3718 0.735673 10.5213C0.689221 10.6709 0.672751 10.828 0.687211 10.984C0.701672 11.1399 0.74674 11.2916 0.819902 11.43C0.918482 11.6166 1.06309 11.7749 1.23995 11.89L4.96993 14.2501C5.00716 14.2742 5.05057 14.287 5.09493 14.287C5.13928 14.287 5.18269 14.2742 5.21993 14.2501L15.2199 5.3502C15.2377 5.33081 15.2594 5.31514 15.2835 5.30455C15.3076 5.29395 15.3336 5.28868 15.3599 5.28868C15.3863 5.28868 15.4124 5.29395 15.4365 5.30455C15.4606 5.31514 15.4822 5.33081 15.5 5.3502C15.5178 5.36787 15.5319 5.3888 15.5416 5.41197C15.5512 5.43514 15.5562 5.46011 15.5562 5.48521C15.5562 5.51032 15.5512 5.53504 15.5416 5.55821C15.5319 5.58138 15.5178 5.60256 15.5 5.62022L7.49996 15.6202C7.46267 15.6593 7.44185 15.711 7.44185 15.765C7.44185 15.819 7.46267 15.871 7.49996 15.91V15.91L12.76 19.2401C13.0281 19.4087 13.3521 19.4644 13.6612 19.3951C13.9703 19.3258 14.2395 19.1372 14.41 18.8702C14.4803 18.7597 14.5311 18.6378 14.56 18.5101L18.67 1.4901Z" fill="white"/>
<path d="M6.31997 16.6599C6.29636 16.6453 6.27021 16.6357 6.24282 16.6313C6.21543 16.6269 6.18738 16.628 6.16042 16.6345C6.13346 16.641 6.1081 16.6528 6.08571 16.6691C6.06333 16.6855 6.04441 16.7062 6.03005 16.7299C6.01977 16.7659 6.01977 16.8041 6.03005 16.84V19.77C6.03005 19.8777 6.05122 19.9842 6.09243 20.0837C6.13364 20.1832 6.19402 20.2737 6.27016 20.3498C6.34631 20.426 6.43679 20.4863 6.53628 20.5275C6.63576 20.5688 6.74231 20.59 6.85 20.59C7.06708 20.588 7.27502 20.502 7.43007 20.3501L9.07998 18.6999C9.11727 18.6608 9.13808 18.6089 9.13808 18.5549C9.13808 18.5009 9.11727 18.4489 9.07998 18.4099L6.31997 16.6599Z" fill="white"/>
</svg>
