<svg width="40" height="40" viewBox="0 0 40 40" fill="none" xmlns="http://www.w3.org/2000/svg">
<path fill-rule="evenodd" clip-rule="evenodd" d="M5.00057 38.1599V16.4399C4.99246 16.0078 5.07147 15.5784 5.23281 15.1775C5.39414 14.7765 5.63451 14.4123 5.93965 14.1062C6.24479 13.8001 6.60847 13.5586 7.00893 13.396C7.40939 13.2334 7.83844 13.1531 8.27059 13.1599V9.93994C8.27059 9.51294 8.44021 9.10345 8.74214 8.80151C9.04408 8.49958 9.45357 8.32983 9.88057 8.32983H11.4906V1.8999C11.4779 1.78665 11.4893 1.67202 11.524 1.56348C11.5587 1.45493 11.6159 1.35495 11.6919 1.27002C11.7679 1.18509 11.8609 1.11707 11.9649 1.07056C12.0689 1.02404 12.1817 1 12.2956 1C12.4096 1 12.5222 1.02404 12.6262 1.07056C12.7303 1.11707 12.8233 1.18509 12.8992 1.27002C12.9752 1.35495 13.0325 1.45493 13.0672 1.56348C13.1018 1.67202 13.1132 1.78665 13.1006 1.8999V8.32983H14.7106C15.1359 8.33248 15.5428 8.50328 15.8425 8.80493C16.1423 9.10658 16.3106 9.51467 16.3106 9.93994V13.1599C17.1628 13.1599 17.9804 13.4979 18.5839 14.0996C19.1875 14.7013 19.5279 15.5176 19.5306 16.3699V22.8098H25.1606V17.98H28.3806V15.5698H33.2106V17.98H34.0106V38.1599H5.00057ZM14.6606 10.8098C14.6606 10.7039 14.6396 10.5992 14.5988 10.5015C14.5579 10.4037 14.4981 10.3151 14.4227 10.2407C14.3474 10.1663 14.258 10.1075 14.1598 10.0679C14.0616 10.0283 13.9565 10.0087 13.8506 10.01H10.6306C10.4184 10.01 10.2149 10.0941 10.0649 10.2441C9.91487 10.3942 9.83058 10.5976 9.83058 10.8098V13.1599H14.6606V10.8098ZM17.8706 16.4399C17.8679 16.0147 17.6972 15.6076 17.3955 15.3079C17.0939 15.0081 16.6858 14.8398 16.2606 14.8398H8.26058C7.8353 14.8398 7.42734 15.0081 7.12569 15.3079C6.82404 15.6076 6.65323 16.0147 6.65059 16.4399V36.5498H17.8706V16.4399ZM25.1106 24.49H19.4806V36.5498H25.1106V24.49ZM32.3506 19.6599H26.7206V36.5498H32.3506V19.6599ZM29.1306 22.0698H29.9406C30.0465 22.0698 30.1513 22.091 30.249 22.1318C30.3468 22.1727 30.4354 22.2325 30.5098 22.3079C30.5843 22.3832 30.643 22.4726 30.6826 22.5708C30.7222 22.669 30.7419 22.774 30.7406 22.8799V23.6799C30.7419 23.7858 30.7222 23.8908 30.6826 23.989C30.643 24.0872 30.5843 24.1766 30.5098 24.252C30.4354 24.3273 30.3468 24.3872 30.249 24.428C30.1513 24.4688 30.0465 24.49 29.9406 24.49H29.1306C29.0247 24.49 28.9198 24.4688 28.8221 24.428C28.7244 24.3872 28.6358 24.3273 28.5614 24.252C28.4869 24.1766 28.4282 24.0872 28.3886 23.989C28.349 23.8908 28.3293 23.7858 28.3306 23.6799V22.8799C28.3293 22.774 28.349 22.669 28.3886 22.5708C28.4282 22.4726 28.4869 22.3832 28.5614 22.3079C28.6358 22.2325 28.7244 22.1727 28.8221 22.1318C28.9198 22.091 29.0247 22.0698 29.1306 22.0698V22.0698ZM29.1306 26.8999H29.9406C30.0465 26.8999 30.1513 26.9208 30.249 26.9617C30.3468 27.0025 30.4354 27.0623 30.5098 27.1377C30.5843 27.213 30.643 27.3024 30.6826 27.4006C30.7222 27.4989 30.7419 27.6041 30.7406 27.71V28.51C30.7406 28.6151 30.7199 28.7191 30.6797 28.8162C30.6395 28.9132 30.5805 29.0014 30.5062 29.0757C30.432 29.15 30.3438 29.2088 30.2467 29.249C30.1497 29.2892 30.0456 29.3098 29.9406 29.3098H29.1306C29.0255 29.3098 28.9215 29.2892 28.8244 29.249C28.7274 29.2088 28.6392 29.15 28.5649 29.0757C28.4906 29.0014 28.4317 28.9132 28.3915 28.8162C28.3513 28.7191 28.3306 28.6151 28.3306 28.51V27.71C28.3293 27.6041 28.349 27.4989 28.3886 27.4006C28.4282 27.3024 28.4869 27.213 28.5614 27.1377C28.6358 27.0623 28.7244 27.0025 28.8221 26.9617C28.9198 26.9208 29.0247 26.8999 29.1306 26.8999ZM29.1306 31.73H29.9406C30.1527 31.73 30.3562 31.8141 30.5062 31.9641C30.6563 32.1141 30.7406 32.3179 30.7406 32.53V33.3398C30.7406 33.552 30.6563 33.7555 30.5062 33.9055C30.3562 34.0555 30.1527 34.1399 29.9406 34.1399H29.1306C28.9184 34.1399 28.7149 34.0555 28.5649 33.9055C28.4149 33.7555 28.3306 33.552 28.3306 33.3398V32.53C28.3306 32.3179 28.4149 32.1141 28.5649 31.9641C28.7149 31.8141 28.9184 31.73 29.1306 31.73V31.73ZM21.8906 26.8999H22.7006C22.8065 26.8999 22.9113 26.9208 23.0091 26.9617C23.1068 27.0025 23.1954 27.0623 23.2699 27.1377C23.3443 27.213 23.403 27.3024 23.4426 27.4006C23.4822 27.4989 23.5019 27.6041 23.5006 27.71V28.51C23.5006 28.6151 23.4799 28.7191 23.4397 28.8162C23.3995 28.9132 23.3405 29.0014 23.2663 29.0757C23.192 29.15 23.1038 29.2088 23.0067 29.249C22.9097 29.2892 22.8056 29.3098 22.7006 29.3098H21.8906C21.7855 29.3098 21.6815 29.2892 21.5844 29.249C21.4874 29.2088 21.3992 29.15 21.3249 29.0757C21.2506 29.0014 21.1917 28.9132 21.1515 28.8162C21.1113 28.7191 21.0906 28.6151 21.0906 28.51V27.71C21.0893 27.6041 21.109 27.4989 21.1486 27.4006C21.1882 27.3024 21.2469 27.213 21.3213 27.1377C21.3957 27.0623 21.4844 27.0025 21.5821 26.9617C21.6798 26.9208 21.7847 26.8999 21.8906 26.8999V26.8999ZM21.8906 31.73H22.7006C22.9128 31.73 23.1162 31.8141 23.2663 31.9641C23.4163 32.1141 23.5006 32.3179 23.5006 32.53V33.3398C23.5006 33.552 23.4163 33.7555 23.2663 33.9055C23.1162 34.0555 22.9128 34.1399 22.7006 34.1399H21.8906C21.6784 34.1399 21.4749 34.0555 21.3249 33.9055C21.1749 33.7555 21.0906 33.552 21.0906 33.3398V32.53C21.0906 32.3179 21.1749 32.1141 21.3249 31.9641C21.4749 31.8141 21.6784 31.73 21.8906 31.73V31.73ZM14.6606 34.1399H13.8506C13.6384 34.1399 13.435 34.0555 13.2849 33.9055C13.1349 33.7555 13.0506 33.552 13.0506 33.3398V32.53C13.0506 32.3179 13.1349 32.1141 13.2849 31.9641C13.435 31.8141 13.6384 31.73 13.8506 31.73H14.6606C14.8728 31.73 15.0762 31.8141 15.2263 31.9641C15.3763 32.1141 15.4606 32.3179 15.4606 32.53V33.3398C15.4606 33.552 15.3763 33.7555 15.2263 33.9055C15.0762 34.0555 14.8728 34.1399 14.6606 34.1399V34.1399ZM14.6606 29.3098H13.8506C13.6384 29.3098 13.435 29.2257 13.2849 29.0757C13.1349 28.9257 13.0506 28.7222 13.0506 28.51V27.71C13.0493 27.6041 13.069 27.4989 13.1086 27.4006C13.1482 27.3024 13.2069 27.213 13.2813 27.1377C13.3557 27.0623 13.4444 27.0025 13.5421 26.9617C13.6398 26.9208 13.7447 26.8999 13.8506 26.8999H14.6606C14.7665 26.8999 14.8714 26.9208 14.9691 26.9617C15.0668 27.0025 15.1554 27.0623 15.2298 27.1377C15.3042 27.213 15.363 27.3024 15.4026 27.4006C15.4422 27.4989 15.4619 27.6041 15.4606 27.71V28.51C15.4606 28.7222 15.3763 28.9257 15.2263 29.0757C15.0762 29.2257 14.8728 29.3098 14.6606 29.3098V29.3098ZM14.6606 24.49H13.8506C13.7447 24.49 13.6398 24.4688 13.5421 24.428C13.4444 24.3872 13.3557 24.3273 13.2813 24.252C13.2069 24.1766 13.1482 24.0872 13.1086 23.989C13.069 23.8908 13.0493 23.7858 13.0506 23.6799V22.8799C13.0493 22.774 13.069 22.669 13.1086 22.5708C13.1482 22.4726 13.2069 22.3832 13.2813 22.3079C13.3557 22.2325 13.4444 22.1727 13.5421 22.1318C13.6398 22.091 13.7447 22.0698 13.8506 22.0698H14.6606C14.7665 22.0698 14.8714 22.091 14.9691 22.1318C15.0668 22.1727 15.1554 22.2325 15.2298 22.3079C15.3042 22.3832 15.363 22.4726 15.4026 22.5708C15.4422 22.669 15.4619 22.774 15.4606 22.8799V23.6799C15.4619 23.7858 15.4422 23.8908 15.4026 23.989C15.363 24.0872 15.3042 24.1766 15.2298 24.252C15.1554 24.3273 15.0668 24.3872 14.9691 24.428C14.8714 24.4688 14.7665 24.49 14.6606 24.49V24.49ZM14.6606 19.6599H13.8506C13.6384 19.6599 13.435 19.5756 13.2849 19.4255C13.1349 19.2755 13.0506 19.072 13.0506 18.8599V18.0498C13.0506 17.8376 13.1349 17.6342 13.2849 17.4841C13.435 17.3341 13.6384 17.25 13.8506 17.25H14.6606C14.8728 17.25 15.0762 17.3341 15.2263 17.4841C15.3763 17.6342 15.4606 17.8376 15.4606 18.0498V18.8599C15.4606 19.072 15.3763 19.2755 15.2263 19.4255C15.0762 19.5756 14.8728 19.6599 14.6606 19.6599V19.6599ZM10.6606 34.1399H9.86061C9.64844 34.1399 9.44491 34.0555 9.29488 33.9055C9.14485 33.7555 9.06056 33.552 9.06056 33.3398V32.53C9.06056 32.3179 9.14485 32.1141 9.29488 31.9641C9.44491 31.8141 9.64844 31.73 9.86061 31.73H10.6606C10.7665 31.7287 10.8716 31.7482 10.9698 31.7878C11.068 31.8275 11.1574 31.8863 11.2327 31.9607C11.3081 32.0351 11.3679 32.1237 11.4088 32.2214C11.4496 32.3192 11.4706 32.4241 11.4706 32.53V33.3398C11.4706 33.4457 11.4496 33.5507 11.4088 33.6484C11.3679 33.7462 11.3081 33.8348 11.2327 33.9092C11.1574 33.9836 11.068 34.0424 10.9698 34.082C10.8716 34.1216 10.7665 34.1412 10.6606 34.1399ZM10.6606 29.3098H9.86061C9.64844 29.3098 9.44491 29.2257 9.29488 29.0757C9.14485 28.9257 9.06056 28.7222 9.06056 28.51V27.71C9.05924 27.6041 9.079 27.4989 9.11861 27.4006C9.15822 27.3024 9.21692 27.213 9.29134 27.1377C9.36576 27.0623 9.45442 27.0025 9.55214 26.9617C9.64986 26.9208 9.75471 26.8999 9.86061 26.8999H10.6606C10.8754 26.8999 11.0815 26.9853 11.2334 27.1372C11.3853 27.2891 11.4706 27.4951 11.4706 27.71V28.51C11.4706 28.6159 11.4496 28.7206 11.4088 28.8184C11.3679 28.9161 11.3081 29.0047 11.2327 29.0791C11.1574 29.1535 11.068 29.2123 10.9698 29.252C10.8716 29.2916 10.7665 29.3111 10.6606 29.3098ZM10.6606 24.49H9.86061C9.75471 24.49 9.64986 24.4688 9.55214 24.428C9.45442 24.3872 9.36576 24.3273 9.29134 24.252C9.21692 24.1766 9.15822 24.0872 9.11861 23.989C9.079 23.8908 9.05924 23.7858 9.06056 23.6799V22.8799C9.05924 22.774 9.079 22.669 9.11861 22.5708C9.15822 22.4726 9.21692 22.3832 9.29134 22.3079C9.36576 22.2325 9.45442 22.1727 9.55214 22.1318C9.64986 22.091 9.75471 22.0698 9.86061 22.0698H10.6606C10.8754 22.0698 11.0815 22.1552 11.2334 22.3071C11.3853 22.459 11.4706 22.6651 11.4706 22.8799V23.6799C11.4706 23.8948 11.3853 24.1008 11.2334 24.2527C11.0815 24.4046 10.8754 24.49 10.6606 24.49V24.49ZM10.6606 19.6599H9.86061C9.64844 19.6599 9.44491 19.5756 9.29488 19.4255C9.14485 19.2755 9.06056 19.072 9.06056 18.8599V18.0498C9.06056 17.8376 9.14485 17.6342 9.29488 17.4841C9.44491 17.3341 9.64844 17.25 9.86061 17.25H10.6606C10.7665 17.2487 10.8716 17.2683 10.9698 17.3079C11.068 17.3475 11.1574 17.4063 11.2327 17.4807C11.3081 17.5551 11.3679 17.6437 11.4088 17.7415C11.4496 17.8392 11.4706 17.9439 11.4706 18.0498V18.8599C11.4706 18.9658 11.4496 19.0707 11.4088 19.1685C11.3679 19.2662 11.3081 19.3548 11.2327 19.4292C11.1574 19.5036 11.068 19.5622 10.9698 19.6018C10.8716 19.6414 10.7665 19.6612 10.6606 19.6599Z" fill="white"/>
</svg>
