<svg width="74" height="74" viewBox="0 0 74 74" fill="none" xmlns="http://www.w3.org/2000/svg">
<path fill-rule="evenodd" clip-rule="evenodd" d="M22.9172 36.39L19.9172 35.21L16.9872 36.39V44.39L19.9872 50.3199L22.9272 44.39L22.9172 36.39ZM27.2472 27.58L24.1372 30.4399V44.35H27.2472V27.58ZM54.2472 35.21L51.2472 36.39V44.39L54.1873 50.3199L57.1873 44.39V36.39L54.2472 35.21ZM39.4773 40.8101H34.6472V46.28H39.4773V40.8101ZM34.0472 39.63H40.0472C40.2037 39.63 40.3538 39.6922 40.4645 39.8029C40.5751 39.9135 40.6372 40.0635 40.6372 40.22V46.28H45.6973V26.28V13.84H28.3672V26.28V44.99V46.3199H33.4272V40.26C33.4272 40.1035 33.4895 39.9534 33.6001 39.8428C33.7107 39.7321 33.8607 39.67 34.0172 39.67L34.0472 39.63ZM38.9573 19.95C38.4467 19.4422 37.7573 19.155 37.0372 19.15C36.5894 19.1489 36.1484 19.2584 35.7531 19.4688C35.3577 19.6791 35.0204 19.9837 34.7711 20.3557C34.5218 20.7277 34.3683 21.1554 34.324 21.601C34.2797 22.0465 34.346 22.4963 34.5172 22.91C34.6884 23.3238 34.9592 23.6889 35.3054 23.9729C35.6516 24.2569 36.0626 24.451 36.5018 24.5381C36.9411 24.6251 37.395 24.6024 37.8234 24.4719C38.2517 24.3414 38.6412 24.1072 38.9573 23.79C39.4629 23.2789 39.7465 22.589 39.7465 21.87C39.7465 21.151 39.4629 20.4611 38.9573 19.95V19.95ZM37.0372 17.95C37.6793 17.9491 38.3117 18.1068 38.8782 18.4089C39.4447 18.7111 39.9278 19.1484 40.2847 19.6821C40.6416 20.2159 40.8611 20.8294 40.924 21.4684C40.9868 22.1074 40.8909 22.752 40.6448 23.345C40.3987 23.938 40.0099 24.4611 39.5131 24.8678C39.0163 25.2745 38.4267 25.5522 37.7968 25.6764C37.1668 25.8005 36.5161 25.7672 35.9021 25.5795C35.2881 25.3917 34.7299 25.0552 34.2772 24.6C33.9137 24.2406 33.6257 23.8122 33.4299 23.34C33.2342 22.8677 33.1346 22.3612 33.1372 21.85C33.1359 21.3375 33.2359 20.8297 33.4314 20.356C33.6269 19.8822 33.9142 19.4518 34.2766 19.0894C34.639 18.7269 35.0694 18.4397 35.5432 18.2441C36.017 18.0486 36.5247 17.9486 37.0372 17.95V17.95ZM50.0372 30.46L46.9272 27.6V44.37H50.0472L50.0372 30.46ZM32.9673 30.34C32.8108 30.34 32.6607 30.2779 32.55 30.1672C32.4394 30.0566 32.3772 29.9065 32.3772 29.75C32.3772 29.5935 32.4394 29.4434 32.55 29.3328C32.6607 29.2221 32.8108 29.16 32.9673 29.16H41.1772C41.3337 29.16 41.4838 29.2221 41.5945 29.3328C41.7051 29.4434 41.7672 29.5935 41.7672 29.75C41.7672 29.9065 41.7051 30.0566 41.5945 30.1672C41.4838 30.2779 41.3337 30.34 41.1772 30.34H32.9673ZM32.9673 33.05C32.8228 33.0313 32.6899 32.9604 32.5938 32.851C32.4976 32.7415 32.4446 32.6007 32.4446 32.455C32.4446 32.3092 32.4976 32.1685 32.5938 32.059C32.6899 31.9495 32.8228 31.8788 32.9673 31.86H41.1772C41.2619 31.849 41.3478 31.8562 41.4294 31.8811C41.5111 31.906 41.5864 31.948 41.6505 32.0043C41.7146 32.0606 41.766 32.1299 41.8011 32.2076C41.8363 32.2854 41.8545 32.3696 41.8545 32.455C41.8545 32.5403 41.8363 32.6247 41.8011 32.7024C41.766 32.7801 41.7146 32.8495 41.6505 32.9058C41.5864 32.9621 41.5111 33.0041 41.4294 33.0289C41.3478 33.0538 41.2619 33.061 41.1772 33.05H32.9673ZM37.6672 65.4C37.6782 65.4846 37.6711 65.5706 37.6462 65.6522C37.6214 65.7338 37.5793 65.8092 37.5229 65.8733C37.4666 65.9374 37.3973 65.9887 37.3196 66.0239C37.2418 66.0591 37.1576 66.0773 37.0723 66.0773C36.9869 66.0773 36.9026 66.0591 36.8248 66.0239C36.7471 65.9887 36.6778 65.9374 36.6215 65.8733C36.5651 65.8092 36.5232 65.7338 36.4983 65.6522C36.4734 65.5706 36.4663 65.4846 36.4773 65.4V55.71C36.4961 55.5654 36.5668 55.4327 36.6763 55.3365C36.7858 55.2404 36.9265 55.1873 37.0723 55.1873C37.218 55.1873 37.3588 55.2404 37.4683 55.3365C37.5778 55.4327 37.6485 55.5654 37.6672 55.71V65.4ZM34.9072 63.4C34.9072 63.5574 34.8455 63.7086 34.7351 63.8208C34.6247 63.933 34.4747 63.9974 34.3173 64C34.2389 64 34.1614 63.9844 34.0891 63.9541C34.0169 63.9238 33.9514 63.8796 33.8965 63.8237C33.8416 63.7679 33.7983 63.7016 33.7693 63.6289C33.7402 63.5562 33.726 63.4783 33.7273 63.4V53.71C33.7259 53.6321 33.7402 53.5549 33.7694 53.4827C33.7986 53.4105 33.8419 53.3449 33.897 53.2898C33.952 53.2347 34.0176 53.1913 34.0898 53.1621C34.162 53.1329 34.2394 53.1186 34.3173 53.12C34.4737 53.12 34.6237 53.1822 34.7344 53.2928C34.845 53.4035 34.9072 53.5535 34.9072 53.71V63.4ZM32.1472 59.51C32.1472 59.6665 32.0851 59.8166 31.9745 59.9272C31.8638 60.0379 31.7137 60.1 31.5573 60.1C31.4008 60.1 31.2507 60.0379 31.14 59.9272C31.0294 59.8166 30.9673 59.6665 30.9673 59.51V49.8199C30.9671 49.6659 31.0261 49.5177 31.1322 49.406C31.2383 49.2943 31.3834 49.2277 31.5372 49.22H29.8772V47.4301H44.2772V49.23H39.8473C40.002 49.2326 40.1494 49.2959 40.2579 49.4062C40.3664 49.5166 40.4273 49.6652 40.4272 49.8199V59.51C40.4085 59.6545 40.3378 59.7872 40.2283 59.8834C40.1188 59.9796 39.978 60.0327 39.8323 60.0327C39.6865 60.0327 39.5458 59.9796 39.4363 59.8834C39.3268 59.7872 39.256 59.6545 39.2372 59.51V49.8199C39.2372 49.6652 39.298 49.5166 39.4065 49.4062C39.515 49.2959 39.6625 49.2326 39.8173 49.23H31.5673C31.722 49.2326 31.8695 49.2959 31.978 49.4062C32.0865 49.5166 32.1472 49.6652 32.1472 49.8199V59.51ZM36.4773 51.92C36.4961 51.7755 36.5668 51.6427 36.6763 51.5465C36.7858 51.4503 36.9265 51.3973 37.0723 51.3973C37.218 51.3973 37.3588 51.4503 37.4683 51.5465C37.5778 51.6427 37.6485 51.7755 37.6672 51.92V54.21C37.6485 54.3545 37.5778 54.4873 37.4683 54.5835C37.3588 54.6797 37.218 54.7327 37.0723 54.7327C36.9265 54.7327 36.7858 54.6797 36.6763 54.5835C36.5668 54.4873 36.4961 54.3545 36.4773 54.21V51.92ZM41.9972 51.92C42.016 51.7755 42.0868 51.6427 42.1963 51.5465C42.3058 51.4503 42.4465 51.3973 42.5923 51.3973C42.738 51.3973 42.8788 51.4503 42.9883 51.5465C43.0978 51.6427 43.1685 51.7755 43.1873 51.92V55.54C43.1685 55.6846 43.0978 55.8173 42.9883 55.9135C42.8788 56.0096 42.738 56.0627 42.5923 56.0627C42.4465 56.0627 42.3058 56.0096 42.1963 55.9135C42.0868 55.8173 42.016 55.6846 41.9972 55.54V51.92ZM44.6672 57.6C44.5253 57.6663 44.3629 57.6736 44.2157 57.6201C44.0685 57.5667 43.9485 57.4568 43.8822 57.3149C43.8159 57.1731 43.8087 57.0107 43.8622 56.8635C43.9156 56.7163 44.0253 56.5963 44.1672 56.53C44.684 56.2843 45.2277 56.0997 45.7872 55.98C46.3455 55.8561 46.9154 55.7924 47.4872 55.79C47.8217 55.7903 48.1559 55.8137 48.4872 55.86C48.74 55.8903 48.9905 55.9371 49.2372 56C49.4864 55.8395 49.7553 55.7118 50.0372 55.62V55.62C50.5769 55.441 51.1514 55.3928 51.7134 55.4792C52.2753 55.5657 52.8088 55.7846 53.2697 56.1176C53.7305 56.4505 54.1057 56.8882 54.3644 57.3945C54.623 57.9009 54.7576 58.4614 54.7572 59.03C54.758 59.3059 54.7279 59.5809 54.6672 59.85C54.6259 60.0235 54.5724 60.194 54.5072 60.36C54.7165 60.8127 54.8806 61.2851 54.9972 61.77C55.0871 62.1312 55.1474 62.499 55.1772 62.87H55.2372H55.9773C56.4162 62.8714 56.8542 62.9082 57.2872 62.98C57.6253 63.0432 57.9592 63.1267 58.2872 63.23C58.4845 63.1299 58.6925 63.0528 58.9072 63C59.2141 62.9195 59.5301 62.8792 59.8473 62.88C60.7986 62.8826 61.7101 63.2618 62.3828 63.9344C63.0555 64.6071 63.4346 65.5187 63.4373 66.47C63.4342 66.7363 63.4006 67.0014 63.3373 67.26C63.3025 67.4341 63.2522 67.6048 63.1873 67.77C63.5661 68.693 63.7565 69.6824 63.7472 70.6801V70.84H66.0573C66.2018 70.8587 66.3345 70.9296 66.4307 71.0391C66.5269 71.1486 66.58 71.2893 66.58 71.4351C66.58 71.5808 66.5269 71.7214 66.4307 71.8309C66.3345 71.9404 66.2018 72.0113 66.0573 72.03H8.67725C8.59264 72.041 8.50666 72.0338 8.42505 72.0089C8.34343 71.984 8.26808 71.9421 8.20398 71.8857C8.13988 71.8294 8.08852 71.7601 8.05334 71.6824C8.01817 71.6046 8 71.5204 8 71.4351C8 71.3497 8.01817 71.2654 8.05334 71.1876C8.08852 71.1099 8.13988 71.0406 8.20398 70.9843C8.26808 70.9279 8.34343 70.886 8.42505 70.8611C8.50666 70.8362 8.59264 70.829 8.67725 70.84H11.2772C11.2212 70.6659 11.1745 70.4891 11.1372 70.3101C11.0328 69.8303 10.9793 69.3409 10.9773 68.85C10.9794 68.369 11.033 67.8896 11.1372 67.42C11.2121 67.0502 11.3227 66.6885 11.4673 66.34C11.3477 66.1285 11.2537 65.9037 11.1873 65.67C11.0894 65.3457 11.0388 65.0089 11.0372 64.67C11.0387 64.0647 11.1929 63.4694 11.4854 62.9393C11.7778 62.4093 12.1992 61.9616 12.7106 61.6376C13.222 61.3136 13.8068 61.1239 14.411 61.0858C15.0152 61.0478 15.6192 61.1628 16.1672 61.42C16.539 61.6058 16.877 61.8525 17.1672 62.15H17.7173C18.052 62.1462 18.3864 62.1695 18.7173 62.22H18.8972C18.9465 61.6192 19.0742 61.0275 19.2772 60.46C19.4978 59.8283 19.815 59.2346 20.2173 58.7V58.49C20.2022 58.317 20.2022 58.143 20.2173 57.97C20.2095 57.1873 20.4584 56.4235 20.9259 55.7958C21.3935 55.168 22.0539 54.7108 22.806 54.4941C23.5582 54.2775 24.3606 54.3133 25.0905 54.5961C25.8203 54.8789 26.4375 55.3932 26.8473 56.0601C27.8635 56.2277 28.826 56.6318 29.6572 57.24C29.7212 57.2839 29.7756 57.3402 29.8174 57.4055C29.8592 57.4709 29.8875 57.5439 29.9005 57.6204C29.9136 57.6968 29.9112 57.7752 29.8934 57.8507C29.8757 57.9262 29.843 57.9974 29.7972 58.0601C29.7049 58.1876 29.5662 58.2737 29.4109 58.2999C29.2556 58.3261 29.0963 58.2902 28.9673 58.2C28.216 57.6486 27.3333 57.3038 26.4072 57.2C26.3108 57.1863 26.2193 57.1491 26.1407 57.0916C26.0622 57.034 25.9992 56.9579 25.9573 56.87C25.7575 56.4617 25.4496 56.1158 25.0673 55.87C24.6865 55.6418 24.2511 55.5209 23.8073 55.52C23.4909 55.5187 23.1773 55.5802 22.8849 55.7009C22.5924 55.8217 22.3269 55.9993 22.1036 56.2235C21.8804 56.4477 21.7039 56.714 21.5844 57.007C21.4648 57.2999 21.4046 57.6137 21.4072 57.9301C21.4072 58.0501 21.4072 58.17 21.4072 58.28C21.4227 58.3948 21.4462 58.5084 21.4773 58.62C21.5083 58.7127 21.5154 58.8117 21.4979 58.9078C21.4804 59.004 21.4389 59.0942 21.3772 59.17C20.979 59.6655 20.6649 60.2228 20.4473 60.8199C20.2383 61.418 20.1301 62.0466 20.1272 62.6801V62.91C20.1367 62.9697 20.1367 63.0303 20.1272 63.09C20.0831 63.2396 19.9817 63.3657 19.8448 63.4407C19.708 63.5156 19.5471 63.5334 19.3972 63.49C19.1476 63.4203 18.8937 63.3668 18.6372 63.33C18.3758 63.2897 18.1118 63.2697 17.8473 63.27H17.4872H17.1672C17.063 63.289 16.9557 63.2806 16.8557 63.2455C16.7558 63.2104 16.6668 63.1499 16.5973 63.0699C16.3753 62.7888 16.0911 62.563 15.7672 62.41C15.3996 62.2391 14.9949 62.1633 14.5903 62.1896C14.1858 62.2159 13.7942 62.3434 13.4518 62.5604C13.1093 62.7774 12.8269 63.077 12.6304 63.4316C12.4339 63.7863 12.3297 64.1845 12.3273 64.59C12.3297 64.8267 12.3633 65.0621 12.4272 65.29C12.4985 65.5126 12.5994 65.7245 12.7273 65.92C12.7737 66.0079 12.798 66.1056 12.798 66.205C12.798 66.3043 12.7737 66.4022 12.7273 66.49C12.5608 66.8511 12.4367 67.2303 12.3573 67.62C12.268 68.0069 12.2244 68.403 12.2273 68.8C12.2243 69.2037 12.268 69.6063 12.3573 70C12.4114 70.2694 12.4883 70.5337 12.5873 70.79H62.5873V70.63C62.5878 70.1697 62.5409 69.7107 62.4473 69.26C62.3482 68.8113 62.2075 68.3726 62.0272 67.95C61.9901 67.8736 61.9708 67.7898 61.9708 67.705C61.9708 67.6201 61.9901 67.5363 62.0272 67.46C62.0985 67.2986 62.1554 67.1313 62.1973 66.96C62.2851 66.6043 62.2909 66.2333 62.2145 65.875C62.138 65.5167 61.9813 65.1805 61.756 64.8916C61.5307 64.6027 61.2426 64.3688 60.9137 64.2074C60.5848 64.046 60.2237 63.9614 59.8573 63.96C59.4402 63.9563 59.0295 64.0633 58.6672 64.27C58.592 64.3171 58.5071 64.3469 58.4189 64.3573C58.3308 64.3677 58.2414 64.3583 58.1572 64.33C57.8058 64.2063 57.4445 64.1127 57.0773 64.05C56.7072 63.9867 56.3327 63.9532 55.9573 63.95C55.7474 63.939 55.5371 63.939 55.3273 63.95C55.1273 63.95 54.9173 63.95 54.7173 64.04H54.6073C54.4508 64.04 54.3007 63.9778 54.1901 63.8672C54.0794 63.7565 54.0172 63.6064 54.0172 63.45C54.015 62.9441 53.9513 62.4404 53.8273 61.95C53.705 61.4595 53.5306 60.9835 53.3073 60.53C53.2651 60.448 53.2432 60.3572 53.2432 60.265C53.2432 60.1728 53.2651 60.082 53.3073 60C53.3895 59.8352 53.4499 59.6604 53.4872 59.48C53.5314 59.2999 53.555 59.1155 53.5573 58.9301C53.5567 58.6139 53.4937 58.3009 53.3718 58.0092C53.25 57.7174 53.0718 57.4526 52.8473 57.23C52.6255 57.005 52.3606 56.8272 52.0685 56.7069C51.7764 56.5866 51.4631 56.5265 51.1472 56.53C50.8931 56.5293 50.6404 56.5663 50.3972 56.64V56.64C50.1482 56.7285 49.9152 56.8568 49.7073 57.02C49.634 57.0754 49.549 57.1132 49.4589 57.1305C49.3687 57.1478 49.2758 57.1442 49.1873 57.12C48.9009 57.0437 48.6104 56.9835 48.3173 56.9399C48.0223 56.8997 47.7249 56.8797 47.4272 56.88C46.9396 56.881 46.4535 56.9347 45.9773 57.04C45.5059 57.1499 45.0469 57.3074 44.6073 57.51L44.6672 57.6ZM43.1272 64.29C43.1084 64.4346 43.0377 64.5673 42.9282 64.6635C42.8187 64.7596 42.678 64.8127 42.5322 64.8127C42.3865 64.8127 42.2457 64.7596 42.1362 64.6635C42.0267 64.5673 41.956 64.4346 41.9373 64.29V57.49C41.956 57.3455 42.0267 57.2128 42.1362 57.1166C42.2457 57.0204 42.3865 56.9673 42.5322 56.9673C42.678 56.9673 42.8187 57.0204 42.9282 57.1166C43.0377 57.2128 43.1084 57.3455 43.1272 57.49V64.29ZM45.0773 12.47L37.0472 2L29.0472 12.59L45.0773 12.47Z" fill="#1C2530"/>
</svg>
